<mxfile host="app.diagrams.net" modified="2023-09-29T23:16:11.170Z" agent="Mozilla/5.0 (Windows NT 10.0; Win64; x64) AppleWebKit/537.36 (KHTML, like Gecko) Chrome/115.0.0.0 Safari/537.36" etag="33uaztkuYJIJjegqB269" version="22.0.0" type="github">
  <diagram name="Page-1" id="wvW3ehxdYdoYtSaxa3fH">
    <mxGraphModel dx="1687" dy="929" grid="1" gridSize="10" guides="1" tooltips="1" connect="1" arrows="1" fold="1" page="1" pageScale="1" pageWidth="850" pageHeight="1100" math="0" shadow="0">
      <root>
        <mxCell id="0" />
        <mxCell id="1" parent="0" />
        <mxCell id="StfwGNy7qWY20ujgkw8x-3" value="" style="edgeStyle=orthogonalEdgeStyle;rounded=0;orthogonalLoop=1;jettySize=auto;html=1;" parent="1" source="StfwGNy7qWY20ujgkw8x-1" target="StfwGNy7qWY20ujgkw8x-2" edge="1">
          <mxGeometry relative="1" as="geometry" />
        </mxCell>
        <mxCell id="StfwGNy7qWY20ujgkw8x-1" value="1. Data Ingestion" style="rounded=1;whiteSpace=wrap;html=1;" parent="1" vertex="1">
          <mxGeometry x="40" y="190" width="120" height="60" as="geometry" />
        </mxCell>
        <mxCell id="StfwGNy7qWY20ujgkw8x-5" value="" style="edgeStyle=orthogonalEdgeStyle;rounded=0;orthogonalLoop=1;jettySize=auto;html=1;" parent="1" source="StfwGNy7qWY20ujgkw8x-2" target="StfwGNy7qWY20ujgkw8x-4" edge="1">
          <mxGeometry relative="1" as="geometry" />
        </mxCell>
        <mxCell id="StfwGNy7qWY20ujgkw8x-2" value="Qradar Offences&lt;br&gt;(Fetch Incident)" style="whiteSpace=wrap;html=1;rounded=1;" parent="1" vertex="1">
          <mxGeometry x="240" y="190" width="120" height="60" as="geometry" />
        </mxCell>
        <mxCell id="StfwGNy7qWY20ujgkw8x-7" value="" style="edgeStyle=orthogonalEdgeStyle;rounded=0;orthogonalLoop=1;jettySize=auto;html=1;" parent="1" source="StfwGNy7qWY20ujgkw8x-4" target="StfwGNy7qWY20ujgkw8x-6" edge="1">
          <mxGeometry relative="1" as="geometry" />
        </mxCell>
        <mxCell id="StfwGNy7qWY20ujgkw8x-9" value="" style="edgeStyle=orthogonalEdgeStyle;rounded=0;orthogonalLoop=1;jettySize=auto;html=1;" parent="1" source="StfwGNy7qWY20ujgkw8x-4" target="StfwGNy7qWY20ujgkw8x-8" edge="1">
          <mxGeometry relative="1" as="geometry" />
        </mxCell>
        <mxCell id="StfwGNy7qWY20ujgkw8x-4" value="2. Data Extraction" style="whiteSpace=wrap;html=1;rounded=1;" parent="1" vertex="1">
          <mxGeometry x="440" y="190" width="120" height="60" as="geometry" />
        </mxCell>
        <mxCell id="QZf3iz8cE-q2q2WU4exR-6" value="" style="edgeStyle=orthogonalEdgeStyle;rounded=0;orthogonalLoop=1;jettySize=auto;html=1;" edge="1" parent="1" source="StfwGNy7qWY20ujgkw8x-6" target="QZf3iz8cE-q2q2WU4exR-5">
          <mxGeometry relative="1" as="geometry" />
        </mxCell>
        <mxCell id="StfwGNy7qWY20ujgkw8x-6" value="Destination IP Address" style="whiteSpace=wrap;html=1;rounded=1;" parent="1" vertex="1">
          <mxGeometry x="610" y="290" width="120" height="60" as="geometry" />
        </mxCell>
        <mxCell id="StfwGNy7qWY20ujgkw8x-11" value="" style="edgeStyle=orthogonalEdgeStyle;rounded=0;orthogonalLoop=1;jettySize=auto;html=1;" parent="1" source="StfwGNy7qWY20ujgkw8x-8" target="StfwGNy7qWY20ujgkw8x-10" edge="1">
          <mxGeometry relative="1" as="geometry" />
        </mxCell>
        <mxCell id="StfwGNy7qWY20ujgkw8x-12" value="" style="edgeStyle=orthogonalEdgeStyle;rounded=0;orthogonalLoop=1;jettySize=auto;html=1;" parent="1" source="StfwGNy7qWY20ujgkw8x-8" target="StfwGNy7qWY20ujgkw8x-10" edge="1">
          <mxGeometry relative="1" as="geometry" />
        </mxCell>
        <mxCell id="StfwGNy7qWY20ujgkw8x-8" value="Source IP Address" style="whiteSpace=wrap;html=1;rounded=1;" parent="1" vertex="1">
          <mxGeometry x="610" y="110" width="120" height="60" as="geometry" />
        </mxCell>
        <mxCell id="StfwGNy7qWY20ujgkw8x-14" value="" style="edgeStyle=orthogonalEdgeStyle;rounded=0;orthogonalLoop=1;jettySize=auto;html=1;" parent="1" source="StfwGNy7qWY20ujgkw8x-10" target="StfwGNy7qWY20ujgkw8x-13" edge="1">
          <mxGeometry relative="1" as="geometry" />
        </mxCell>
        <mxCell id="StfwGNy7qWY20ujgkw8x-10" value="3. User Enrichment" style="whiteSpace=wrap;html=1;rounded=1;" parent="1" vertex="1">
          <mxGeometry x="790" y="50" width="120" height="60" as="geometry" />
        </mxCell>
        <mxCell id="StfwGNy7qWY20ujgkw8x-16" value="" style="edgeStyle=orthogonalEdgeStyle;rounded=0;orthogonalLoop=1;jettySize=auto;html=1;" parent="1" source="StfwGNy7qWY20ujgkw8x-13" target="StfwGNy7qWY20ujgkw8x-15" edge="1">
          <mxGeometry relative="1" as="geometry" />
        </mxCell>
        <mxCell id="StfwGNy7qWY20ujgkw8x-13" value="List Agents" style="whiteSpace=wrap;html=1;rounded=1;" parent="1" vertex="1">
          <mxGeometry x="990" y="50" width="120" height="60" as="geometry" />
        </mxCell>
        <mxCell id="StfwGNy7qWY20ujgkw8x-18" value="" style="edgeStyle=orthogonalEdgeStyle;rounded=0;orthogonalLoop=1;jettySize=auto;html=1;" parent="1" source="StfwGNy7qWY20ujgkw8x-15" target="StfwGNy7qWY20ujgkw8x-17" edge="1">
          <mxGeometry relative="1" as="geometry" />
        </mxCell>
        <mxCell id="StfwGNy7qWY20ujgkw8x-15" value="4. Correlation" style="whiteSpace=wrap;html=1;rounded=1;" parent="1" vertex="1">
          <mxGeometry x="1170" y="50" width="120" height="60" as="geometry" />
        </mxCell>
        <mxCell id="StfwGNy7qWY20ujgkw8x-20" value="" style="edgeStyle=orthogonalEdgeStyle;rounded=0;orthogonalLoop=1;jettySize=auto;html=1;" parent="1" source="StfwGNy7qWY20ujgkw8x-17" target="StfwGNy7qWY20ujgkw8x-19" edge="1">
          <mxGeometry relative="1" as="geometry" />
        </mxCell>
        <mxCell id="StfwGNy7qWY20ujgkw8x-17" value="Extract Agent IP Address" style="whiteSpace=wrap;html=1;rounded=1;" parent="1" vertex="1">
          <mxGeometry x="1370" y="50" width="120" height="60" as="geometry" />
        </mxCell>
        <mxCell id="StfwGNy7qWY20ujgkw8x-22" value="" style="edgeStyle=orthogonalEdgeStyle;rounded=0;orthogonalLoop=1;jettySize=auto;html=1;" parent="1" source="StfwGNy7qWY20ujgkw8x-19" target="StfwGNy7qWY20ujgkw8x-21" edge="1">
          <mxGeometry relative="1" as="geometry" />
        </mxCell>
        <mxCell id="QZf3iz8cE-q2q2WU4exR-28" value="True" style="edgeLabel;html=1;align=center;verticalAlign=middle;resizable=0;points=[];" vertex="1" connectable="0" parent="StfwGNy7qWY20ujgkw8x-22">
          <mxGeometry x="0.4" relative="1" as="geometry">
            <mxPoint x="-16" as="offset" />
          </mxGeometry>
        </mxCell>
        <mxCell id="QZf3iz8cE-q2q2WU4exR-29" style="edgeStyle=orthogonalEdgeStyle;rounded=0;orthogonalLoop=1;jettySize=auto;html=1;entryX=0.5;entryY=1;entryDx=0;entryDy=0;exitX=0.476;exitY=1.006;exitDx=0;exitDy=0;exitPerimeter=0;" edge="1" parent="1" source="StfwGNy7qWY20ujgkw8x-19" target="StfwGNy7qWY20ujgkw8x-25">
          <mxGeometry relative="1" as="geometry">
            <mxPoint x="1820" y="170" as="sourcePoint" />
            <mxPoint x="2360" y="200" as="targetPoint" />
          </mxGeometry>
        </mxCell>
        <mxCell id="QZf3iz8cE-q2q2WU4exR-30" value="False" style="edgeLabel;html=1;align=center;verticalAlign=middle;resizable=0;points=[];" vertex="1" connectable="0" parent="QZf3iz8cE-q2q2WU4exR-29">
          <mxGeometry x="-0.3386" relative="1" as="geometry">
            <mxPoint x="-17" y="-3" as="offset" />
          </mxGeometry>
        </mxCell>
        <mxCell id="StfwGNy7qWY20ujgkw8x-19" value="Conditional -&amp;gt; If the source IP is a agent&lt;br&gt;(Contains Multiple Texts)&lt;br&gt;Input :&amp;nbsp;{{ $.PlaybookData.[&quot;List Agents&quot;].rawData.data[*].lastIpToMgmt }}&lt;br&gt;Value : {{ $.PlaybookData.[&quot;Source IP Address&quot;].returnData }}" style="whiteSpace=wrap;html=1;rounded=1;" parent="1" vertex="1">
          <mxGeometry x="1560" y="37.5" width="340" height="85" as="geometry" />
        </mxCell>
        <mxCell id="StfwGNy7qWY20ujgkw8x-24" value="" style="edgeStyle=orthogonalEdgeStyle;rounded=0;orthogonalLoop=1;jettySize=auto;html=1;" parent="1" source="StfwGNy7qWY20ujgkw8x-21" target="StfwGNy7qWY20ujgkw8x-23" edge="1">
          <mxGeometry relative="1" as="geometry" />
        </mxCell>
        <mxCell id="StfwGNy7qWY20ujgkw8x-21" value="Extract the Agent ID of affected host" style="whiteSpace=wrap;html=1;rounded=1;" parent="1" vertex="1">
          <mxGeometry x="1980" y="50" width="120" height="60" as="geometry" />
        </mxCell>
        <mxCell id="StfwGNy7qWY20ujgkw8x-26" value="" style="edgeStyle=orthogonalEdgeStyle;rounded=0;orthogonalLoop=1;jettySize=auto;html=1;" parent="1" source="StfwGNy7qWY20ujgkw8x-23" target="StfwGNy7qWY20ujgkw8x-25" edge="1">
          <mxGeometry relative="1" as="geometry" />
        </mxCell>
        <mxCell id="StfwGNy7qWY20ujgkw8x-23" value="Quarantine Host" style="whiteSpace=wrap;html=1;rounded=1;" parent="1" vertex="1">
          <mxGeometry x="2180" y="50" width="120" height="60" as="geometry" />
        </mxCell>
        <mxCell id="StfwGNy7qWY20ujgkw8x-25" value="Incident Close" style="whiteSpace=wrap;html=1;rounded=1;" parent="1" vertex="1">
          <mxGeometry x="2380" y="50" width="120" height="60" as="geometry" />
        </mxCell>
        <mxCell id="QZf3iz8cE-q2q2WU4exR-2" value="" style="edgeStyle=orthogonalEdgeStyle;rounded=0;orthogonalLoop=1;jettySize=auto;html=1;" edge="1" parent="1" source="QZf3iz8cE-q2q2WU4exR-1" target="StfwGNy7qWY20ujgkw8x-1">
          <mxGeometry relative="1" as="geometry" />
        </mxCell>
        <mxCell id="QZf3iz8cE-q2q2WU4exR-1" value="Playbook&lt;br&gt;Domain Tools Threat Hunting" style="rounded=1;whiteSpace=wrap;html=1;" vertex="1" parent="1">
          <mxGeometry x="40" y="63" width="120" height="60" as="geometry" />
        </mxCell>
        <mxCell id="QZf3iz8cE-q2q2WU4exR-4" value="" style="edgeStyle=orthogonalEdgeStyle;rounded=0;orthogonalLoop=1;jettySize=auto;html=1;" edge="1" parent="1" source="QZf3iz8cE-q2q2WU4exR-3" target="StfwGNy7qWY20ujgkw8x-1">
          <mxGeometry relative="1" as="geometry" />
        </mxCell>
        <mxCell id="QZf3iz8cE-q2q2WU4exR-3" value="D3 - Triggers" style="rounded=1;whiteSpace=wrap;html=1;" vertex="1" parent="1">
          <mxGeometry x="40" y="310" width="120" height="60" as="geometry" />
        </mxCell>
        <mxCell id="QZf3iz8cE-q2q2WU4exR-12" style="edgeStyle=orthogonalEdgeStyle;rounded=0;orthogonalLoop=1;jettySize=auto;html=1;entryX=0;entryY=0.5;entryDx=0;entryDy=0;" edge="1" parent="1" source="QZf3iz8cE-q2q2WU4exR-5" target="QZf3iz8cE-q2q2WU4exR-14">
          <mxGeometry relative="1" as="geometry">
            <mxPoint x="970" y="365" as="targetPoint" />
          </mxGeometry>
        </mxCell>
        <mxCell id="QZf3iz8cE-q2q2WU4exR-15" style="edgeStyle=orthogonalEdgeStyle;rounded=0;orthogonalLoop=1;jettySize=auto;html=1;entryX=0;entryY=0.5;entryDx=0;entryDy=0;" edge="1" parent="1" source="QZf3iz8cE-q2q2WU4exR-5" target="QZf3iz8cE-q2q2WU4exR-7">
          <mxGeometry relative="1" as="geometry" />
        </mxCell>
        <mxCell id="QZf3iz8cE-q2q2WU4exR-5" value="3. Threat Hunting" style="whiteSpace=wrap;html=1;rounded=1;" vertex="1" parent="1">
          <mxGeometry x="790" y="300" width="120" height="60" as="geometry" />
        </mxCell>
        <mxCell id="QZf3iz8cE-q2q2WU4exR-21" value="" style="edgeStyle=orthogonalEdgeStyle;rounded=0;orthogonalLoop=1;jettySize=auto;html=1;" edge="1" parent="1" source="QZf3iz8cE-q2q2WU4exR-7" target="QZf3iz8cE-q2q2WU4exR-20">
          <mxGeometry relative="1" as="geometry" />
        </mxCell>
        <mxCell id="QZf3iz8cE-q2q2WU4exR-7" value="Check IP&lt;br&gt;(DomainTools)" style="whiteSpace=wrap;html=1;rounded=1;" vertex="1" parent="1">
          <mxGeometry x="970" y="230" width="120" height="60" as="geometry" />
        </mxCell>
        <mxCell id="QZf3iz8cE-q2q2WU4exR-17" value="" style="edgeStyle=orthogonalEdgeStyle;rounded=0;orthogonalLoop=1;jettySize=auto;html=1;" edge="1" parent="1" source="QZf3iz8cE-q2q2WU4exR-14" target="QZf3iz8cE-q2q2WU4exR-16">
          <mxGeometry relative="1" as="geometry" />
        </mxCell>
        <mxCell id="QZf3iz8cE-q2q2WU4exR-14" value="Iris Investigate&lt;br&gt;(DomainTools)" style="rounded=1;whiteSpace=wrap;html=1;" vertex="1" parent="1">
          <mxGeometry x="970" y="370" width="120" height="60" as="geometry" />
        </mxCell>
        <mxCell id="QZf3iz8cE-q2q2WU4exR-19" value="" style="edgeStyle=orthogonalEdgeStyle;rounded=0;orthogonalLoop=1;jettySize=auto;html=1;" edge="1" parent="1" source="QZf3iz8cE-q2q2WU4exR-16" target="QZf3iz8cE-q2q2WU4exR-18">
          <mxGeometry relative="1" as="geometry" />
        </mxCell>
        <mxCell id="QZf3iz8cE-q2q2WU4exR-16" value="Remediation" style="whiteSpace=wrap;html=1;rounded=1;" vertex="1" parent="1">
          <mxGeometry x="1170" y="370" width="120" height="60" as="geometry" />
        </mxCell>
        <mxCell id="QZf3iz8cE-q2q2WU4exR-18" value="Conditional -&amp;gt; Check Risk Score&lt;br style=&quot;border-color: var(--border-color);&quot;&gt;(Greater than)&lt;br style=&quot;border-color: var(--border-color);&quot;&gt;" style="whiteSpace=wrap;html=1;rounded=1;" vertex="1" parent="1">
          <mxGeometry x="1380" y="367.5" width="160" height="65" as="geometry" />
        </mxCell>
        <mxCell id="QZf3iz8cE-q2q2WU4exR-23" value="" style="edgeStyle=orthogonalEdgeStyle;rounded=0;orthogonalLoop=1;jettySize=auto;html=1;" edge="1" parent="1" source="QZf3iz8cE-q2q2WU4exR-20" target="QZf3iz8cE-q2q2WU4exR-22">
          <mxGeometry relative="1" as="geometry" />
        </mxCell>
        <mxCell id="QZf3iz8cE-q2q2WU4exR-20" value="Reverse Domain&lt;br&gt;(DomainTools)" style="whiteSpace=wrap;html=1;rounded=1;" vertex="1" parent="1">
          <mxGeometry x="1170" y="230" width="120" height="60" as="geometry" />
        </mxCell>
        <mxCell id="QZf3iz8cE-q2q2WU4exR-25" value="" style="edgeStyle=orthogonalEdgeStyle;rounded=0;orthogonalLoop=1;jettySize=auto;html=1;entryX=0;entryY=0.5;entryDx=0;entryDy=0;" edge="1" parent="1" source="QZf3iz8cE-q2q2WU4exR-22" target="QZf3iz8cE-q2q2WU4exR-26">
          <mxGeometry relative="1" as="geometry">
            <mxPoint x="1570" y="260" as="targetPoint" />
          </mxGeometry>
        </mxCell>
        <mxCell id="QZf3iz8cE-q2q2WU4exR-22" value="Check Domain&lt;br&gt;(DomainTools)" style="whiteSpace=wrap;html=1;rounded=1;" vertex="1" parent="1">
          <mxGeometry x="1380" y="230" width="120" height="60" as="geometry" />
        </mxCell>
        <mxCell id="QZf3iz8cE-q2q2WU4exR-26" value="" style="rounded=1;whiteSpace=wrap;html=1;" vertex="1" parent="1">
          <mxGeometry x="1570" y="230" width="120" height="60" as="geometry" />
        </mxCell>
      </root>
    </mxGraphModel>
  </diagram>
</mxfile>
